<svg xmlns="http://www.w3.org/2000/svg" width="120" height="120" viewBox="0 0 200 200" class="player-svg">
  <!-- Background -->
  <rect width="200" height="200" fill="#0F5738" rx="10" ry="10"/>
  
  <!-- Body -->
  <path d="M75 110 L 75 180 L 125 180 L 125 110 Z" fill="#1A7F54"/>
  
  <!-- Head -->
  <path d="M70 70 L 60 40 L 100 30 L 140 40 L 130 70 Z" fill="#1A7F54"/>
  <circle cx="100" cy="70" r="35" fill="#1A7F54"/>
  
  <!-- Spikes -->
  <path d="M85 30 L 90 15 L 95 30" fill="#0A3B25" stroke="#0A3B25" stroke-width="2"/>
  <path d="M100 25 L 105 5 L 110 25" fill="#0A3B25" stroke="#0A3B25" stroke-width="2"/>
  <path d="M115 30 L 120 15 L 125 30" fill="#0A3B25" stroke="#0A3B25" stroke-width="2"/>
  
  <!-- Tail -->
  <path d="M100 180 L 110 190 L 120 195 L 130 190" fill="#1A7F54" stroke="#0A3B25" stroke-width="2"/>
  
  <!-- Eyes - Normal -->
  <g class="eyes-normal">
    <ellipse cx="85" cy="65" rx="5" ry="7" fill="#FFF"/>
    <ellipse cx="115" cy="65" rx="5" ry="7" fill="#FFF"/>
    <circle cx="85" cy="65" r="3" fill="#FF0000"/>
    <circle cx="115" cy="65" r="3" fill="#FF0000"/>
  </g>
  
  <!-- Eyes - Pain (initially hidden) -->
  <g class="eyes-pain" style="display: none;">
    <path d="M80 65 L 90 65" stroke="#FF0000" stroke-width="2"/>
    <path d="M110 65 L 120 65" stroke="#FF0000" stroke-width="2"/>
  </g>
  
  <!-- Eyebrows - Normal -->
  <g class="eyebrows-normal">
    <path d="M75 55 Q 85 50 95 55" stroke="#0A3B25" stroke-width="3" fill="none"/>
    <path d="M105 55 Q 115 50 125 55" stroke="#0A3B25" stroke-width="3" fill="none"/>
  </g>
  
  <!-- Eyebrows - Pain (initially hidden) -->
  <g class="eyebrows-pain" style="display: none;">
    <path d="M75 50 Q 85 60 95 50" stroke="#0A3B25" stroke-width="3" fill="none"/>
    <path d="M105 50 Q 115 60 125 50" stroke="#0A3B25" stroke-width="3" fill="none"/>
  </g>
  
  <!-- Mouth - Normal -->
  <g class="mouth-normal">
    <path d="M85 90 Q 100 95 115 90" stroke="#0A3B25" stroke-width="2" fill="none"/>
    <!-- Teeth -->
    <path d="M90 90 L 90 95" stroke="#FFF" stroke-width="2"/>
    <path d="M100 92 L 100 97" stroke="#FFF" stroke-width="2"/>
    <path d="M110 90 L 110 95" stroke="#FFF" stroke-width="2"/>
  </g>
  
  <!-- Mouth - Pain (initially hidden) -->
  <g class="mouth-pain" style="display: none;">
    <path d="M85 95 Q 100 105 115 95" stroke="#0A3B25" stroke-width="3" fill="none"/>
    <!-- Teeth -->
    <path d="M90 95 L 90 100" stroke="#FFF" stroke-width="2"/>
    <path d="M100 100 L 100 105" stroke="#FFF" stroke-width="2"/>
    <path d="M110 95 L 110 100" stroke="#FFF" stroke-width="2"/>
  </g>
  
  <!-- Arms -->
  <path d="M75 120 L 55 140 L 50 160" fill="#1A7F54" stroke="#0A3B25" stroke-width="2"/>
  <path d="M125 120 L 145 140 L 150 160" fill="#1A7F54" stroke="#0A3B25" stroke-width="2"/>
  
  <!-- Claws -->
  <path d="M50 160 L 45 165 L 50 162" stroke="#FFF" stroke-width="2" fill="none"/>
  <path d="M50 160 L 50 168 L 53 162" stroke="#FFF" stroke-width="2" fill="none"/>
  <path d="M50 160 L 55 165 L 56 160" stroke="#FFF" stroke-width="2" fill="none"/>
  
  <path d="M150 160 L 155 165 L 150 162" stroke="#FFF" stroke-width="2" fill="none"/>
  <path d="M150 160 L 150 168 L 147 162" stroke="#FFF" stroke-width="2" fill="none"/>
  <path d="M150 160 L 145 165 L 144 160" stroke="#FFF" stroke-width="2" fill="none"/>
</svg> 