<svg xmlns="http://www.w3.org/2000/svg" width="120" height="120" viewBox="0 0 200 200" class="player-svg">
  <!-- Background -->
  <rect width="200" height="200" fill="#9C27B0" rx="10" ry="10"/>
  
  <!-- Body -->
  <ellipse cx="100" cy="120" rx="25" ry="40" fill="#CE93D8"/>
  
  <!-- Head -->
  <circle cx="100" cy="70" r="25" fill="#CE93D8"/>
  
  <!-- Antennae -->
  <path d="M85 50 L 70 30" stroke="#E1BEE7" stroke-width="2" fill="none"/>
  <path d="M115 50 L 130 30" stroke="#E1BEE7" stroke-width="2" fill="none"/>
  <circle cx="70" cy="30" r="3" fill="#F3E5F5"/>
  <circle cx="130" cy="30" r="3" fill="#F3E5F5"/>
  
  <!-- Wings -->
  <path d="M100 90 L 40 60 L 30 100 L 60 130 L 100 120" fill="#E1BEE7" stroke="#9C27B0" stroke-width="1"/>
  <path d="M100 90 L 160 60 L 170 100 L 140 130 L 100 120" fill="#E1BEE7" stroke="#9C27B0" stroke-width="1"/>
  
  <!-- Wing Patterns -->
  <path d="M40 60 L 50 70 L 60 65 L 70 75 L 80 70 L 90 80 L 100 90" stroke="#9C27B0" stroke-width="1" fill="none"/>
  <path d="M160 60 L 150 70 L 140 65 L 130 75 L 120 70 L 110 80 L 100 90" stroke="#9C27B0" stroke-width="1" fill="none"/>
  <circle cx="50" cy="70" r="5" fill="#7B1FA2" opacity="0.5"/>
  <circle cx="80" cy="70" r="5" fill="#7B1FA2" opacity="0.5"/>
  <circle cx="150" cy="70" r="5" fill="#7B1FA2" opacity="0.5"/>
  <circle cx="120" cy="70" r="5" fill="#7B1FA2" opacity="0.5"/>
  
  <!-- Eyes - Normal -->
  <g class="eyes-normal">
    <ellipse cx="90" cy="65" rx="5" ry="7" fill="#F3E5F5"/>
    <ellipse cx="110" cy="65" rx="5" ry="7" fill="#F3E5F5"/>
    <circle cx="90" cy="65" r="3" fill="#4A148C"/>
    <circle cx="110" cy="65" r="3" fill="#4A148C"/>
  </g>
  
  <!-- Eyes - Pain (initially hidden) -->
  <g class="eyes-pain" style="display: none;">
    <path d="M85 65 L 95 65" stroke="#4A148C" stroke-width="2"/>
    <path d="M105 65 L 115 65" stroke="#4A148C" stroke-width="2"/>
  </g>
  
  <!-- Mouth - Normal -->
  <g class="mouth-normal">
    <path d="M95 80 Q 100 83 105 80" stroke="#4A148C" stroke-width="1" fill="none"/>
  </g>
  
  <!-- Mouth - Pain (initially hidden) -->
  <g class="mouth-pain" style="display: none;">
    <path d="M95 83 Q 100 87 105 83" stroke="#4A148C" stroke-width="2" fill="none"/>
  </g>
  
  <!-- Legs -->
  <path d="M90 140 L 80 160 L 75 170" stroke="#CE93D8" stroke-width="3" fill="none"/>
  <path d="M110 140 L 120 160 L 125 170" stroke="#CE93D8" stroke-width="3" fill="none"/>
  <path d="M85 130 L 70 150 L 65 165" stroke="#CE93D8" stroke-width="3" fill="none"/>
  <path d="M115 130 L 130 150 L 135 165" stroke="#CE93D8" stroke-width="3" fill="none"/>
  
  <!-- Eyebrows - Normal -->
  <g class="eyebrows-normal">
    <path d="M85 55 Q 90 52 95 55" stroke="#4A148C" stroke-width="2" fill="none"/>
    <path d="M105 55 Q 110 52 115 55" stroke="#4A148C" stroke-width="2" fill="none"/>
  </g>
  
  <!-- Eyebrows - Pain (initially hidden) -->
  <g class="eyebrows-pain" style="display: none;">
    <path d="M85 52 Q 90 58 95 52" stroke="#4A148C" stroke-width="2" fill="none"/>
    <path d="M105 52 Q 110 58 115 52" stroke="#4A148C" stroke-width="2" fill="none"/>
  </g>
</svg> 