<svg xmlns="http://www.w3.org/2000/svg" width="120" height="120" viewBox="0 0 200 200" class="player-svg">
  <!-- Background -->
  <rect width="200" height="200" fill="#F44336" rx="10" ry="10"/>
  
  <!-- Body -->
  <path d="M75 110 L 75 180 L 125 180 L 125 110 Z" fill="#EF5350"/>
  
  <!-- Wings -->
  <path d="M75 110 L 20 70 L 10 120 L 40 150 L 75 140" fill="#FFCDD2" stroke="#B71C1C" stroke-width="1"/>
  <path d="M125 110 L 180 70 L 190 120 L 160 150 L 125 140" fill="#FFCDD2" stroke="#B71C1C" stroke-width="1"/>
  
  <!-- Wing Patterns -->
  <path d="M20 70 L 30 80 L 40 75 L 50 85 L 60 80 L 70 90 L 75 110" stroke="#B71C1C" stroke-width="1" fill="none"/>
  <path d="M180 70 L 170 80 L 160 75 L 150 85 L 140 80 L 130 90 L 125 110" stroke="#B71C1C" stroke-width="1" fill="none"/>
  
  <!-- Head -->
  <path d="M80 70 L 70 40 L 100 20 L 130 40 L 120 70 Z" fill="#EF5350"/>
  <circle cx="100" cy="70" r="30" fill="#EF5350"/>
  
  <!-- Crest -->
  <path d="M100 20 L 90 5 L 100 10 L 110 5 L 100 20" fill="#B71C1C" stroke="#B71C1C" stroke-width="1"/>
  
  <!-- Beak -->
  <path d="M80 70 L 100 90 L 120 70" fill="#B71C1C"/>
  <path d="M90 70 L 100 85 L 110 70" fill="#FFCDD2"/>
  
  <!-- Eyes - Normal -->
  <g class="eyes-normal">
    <ellipse cx="85" cy="60" rx="5" ry="7" fill="#FFF"/>
    <ellipse cx="115" cy="60" rx="5" ry="7" fill="#FFF"/>
    <circle cx="85" cy="60" r="3" fill="#B71C1C"/>
    <circle cx="115" cy="60" r="3" fill="#B71C1C"/>
  </g>
  
  <!-- Eyes - Pain (initially hidden) -->
  <g class="eyes-pain" style="display: none;">
    <path d="M80 60 L 90 60" stroke="#B71C1C" stroke-width="2"/>
    <path d="M110 60 L 120 60" stroke="#B71C1C" stroke-width="2"/>
  </g>
  
  <!-- Eyebrows - Normal -->
  <g class="eyebrows-normal">
    <path d="M75 50 Q 85 45 95 50" stroke="#B71C1C" stroke-width="3" fill="none"/>
    <path d="M105 50 Q 115 45 125 50" stroke="#B71C1C" stroke-width="3" fill="none"/>
  </g>
  
  <!-- Eyebrows - Pain (initially hidden) -->
  <g class="eyebrows-pain" style="display: none;">
    <path d="M75 45 Q 85 55 95 45" stroke="#B71C1C" stroke-width="3" fill="none"/>
    <path d="M105 45 Q 115 55 125 45" stroke="#B71C1C" stroke-width="3" fill="none"/>
  </g>
  
  <!-- Mouth - Normal -->
  <g class="mouth-normal">
    <path d="M90 75 L 100 80 L 110 75" stroke="#B71C1C" stroke-width="1" fill="none"/>
  </g>
  
  <!-- Mouth - Pain (initially hidden) -->
  <g class="mouth-pain" style="display: none;">
    <path d="M90 80 Q 100 85 110 80" stroke="#B71C1C" stroke-width="2" fill="none"/>
  </g>
  
  <!-- Tail -->
  <path d="M100 180 L 110 190 L 120 195 L 130 190" fill="#EF5350" stroke="#B71C1C" stroke-width="2"/>
  
  <!-- Legs -->
  <path d="M85 180 L 80 190 L 75 195" stroke="#EF5350" stroke-width="3" fill="none"/>
  <path d="M115 180 L 120 190 L 125 195" stroke="#EF5350" stroke-width="3" fill="none"/>
</svg> 